<?xml version="1.0" encoding="UTF-8"?>
<svg xmlns="http://www.w3.org/2000/svg" xmlns:xlink="http://www.w3.org/1999/xlink" width="109px" height="190px" viewBox="0 0 109 170" version="1.1" style="height: 3rem">
<g id="surface1">
<path style=" stroke:none;fill-rule:nonzero;fill:rgb(60%,0.392157%,0%);fill-opacity:1;" d="M 26.164062 132.039062 L 26.164062 128.972656 L 36.660156 128.292969 L 36.660156 38.574219 L 26.164062 37.890625 L 26.164062 34.828125 L 62.632812 34.828125 C 66.539062 34.828125 70.085938 35.007812 73.265625 35.371094 C 76.492188 35.734375 79.671875 36.414062 82.808594 37.414062 C 85.945312 38.367188 88.558594 39.640625 90.648438 41.230469 C 92.785156 42.820312 94.488281 44.929688 95.761719 47.566406 C 97.078125 50.152344 97.738281 53.195312 97.738281 56.695312 C 97.738281 59.464844 97.125 62.03125 95.898438 64.390625 C 94.671875 66.707031 93.101562 68.636719 91.195312 70.183594 C 89.332031 71.726562 87.148438 73.113281 84.648438 74.339844 C 82.148438 75.519531 79.742188 76.425781 77.425781 77.0625 C 75.105469 77.699219 72.789062 78.175781 70.472656 78.492188 L 70.472656 78.765625 C 75.0625 78.765625 79.289062 79.3125 83.148438 80.402344 C 87.011719 81.445312 90.375 83.011719 93.238281 85.101562 C 96.148438 87.191406 98.417969 89.9375 100.054688 93.34375 C 101.691406 96.707031 102.507812 100.542969 102.507812 104.859375 C 102.507812 108.761719 101.804688 112.28125 100.394531 115.417969 C 98.988281 118.503906 97.101562 121.070312 94.738281 123.113281 C 92.375 125.160156 89.582031 126.863281 86.355469 128.222656 C 83.171875 129.585938 79.855469 130.5625 76.402344 131.152344 C 72.949219 131.742188 69.335938 132.039062 65.5625 132.039062 Z M 54.113281 127.609375 C 56.566406 128.066406 58.929688 128.292969 61.199219 128.292969 C 68.425781 128.292969 74.085938 126.203125 78.175781 122.023438 C 82.308594 117.847656 84.378906 112.167969 84.378906 104.992188 C 84.378906 97.320312 82.242188 91.460938 77.96875 87.417969 C 73.742188 83.332031 67.882812 81.285156 60.382812 81.285156 C 58.246094 81.285156 56.15625 81.445312 54.113281 81.761719 Z M 54.113281 77.132812 C 56.019531 77.402344 57.769531 77.539062 59.359375 77.539062 C 73.128906 77.539062 80.015625 70.726562 80.015625 57.101562 C 80.015625 51.289062 78.46875 46.746094 75.378906 43.476562 C 72.289062 40.207031 67.5625 38.574219 61.199219 38.574219 C 58.929688 38.574219 56.566406 38.800781 54.113281 39.253906 Z M 54.113281 77.132812 "/>
<path style=" stroke:none;fill-rule:nonzero;fill:rgb(0%,0%,0%);fill-opacity:1;" d="M 4.515625 122.523438 L 4.515625 120.007812 L 13.128906 119.449219 L 13.128906 45.863281 L 4.515625 45.304688 L 4.515625 42.792969 L 36.050781 42.792969 L 36.050781 45.304688 L 27.441406 45.863281 L 27.441406 118.890625 C 33.515625 119.300781 37.671875 119.503906 39.90625 119.503906 C 41.957031 119.503906 43.746094 119.449219 45.273438 119.339844 C 46.839844 119.226562 48.253906 118.984375 49.523438 118.613281 C 50.828125 118.238281 51.910156 117.847656 52.765625 117.4375 C 53.660156 117.027344 54.5 116.394531 55.28125 115.539062 C 56.0625 114.644531 56.699219 113.789062 57.183594 112.96875 C 57.667969 112.113281 58.300781 110.472656 59.082031 108.050781 C 59.867188 105.59375 60.554688 102.816406 61.152344 99.726562 L 63.050781 99.726562 L 63.050781 122.523438 Z M 4.515625 122.523438 "/>
</g>
</svg>
